<svg preserveAspectRatio="none" width="100%" height="100%" overflow="visible" style="display: block;" viewBox="0 0 23.2392 25.9001" fill="none" xmlns="http://www.w3.org/2000/svg">
<g id="Icon container">
<path id="Vector" d="M21.3881 5.06601C21.3722 4.89393 21.2923 4.73407 21.1644 4.61792C21.0364 4.50177 20.8696 4.43776 20.6968 4.43849H2.54665C2.37074 4.43798 2.20115 4.50403 2.07193 4.62339C1.94271 4.74275 1.86343 4.90657 1.85 5.08196L0.451379 24.6998C0.445335 24.7969 0.4592 24.8941 0.492124 24.9855C0.525048 25.077 0.576333 25.1607 0.642825 25.2316C0.710855 25.3037 0.793483 25.3605 0.885189 25.3981C0.976895 25.4357 1.07557 25.4533 1.17462 25.4497H22.0901C22.1864 25.4508 22.282 25.4317 22.3705 25.3937C22.4591 25.3557 22.5388 25.2996 22.6044 25.2289C22.67 25.1583 22.7201 25.0748 22.7515 24.9837C22.7829 24.8926 22.7949 24.7959 22.7867 24.6998L21.3881 5.06601ZM1.90318 24.0511L3.19544 5.81052H20.0427L21.3402 24.0511H1.90318Z" fill="var(--fill-0, #02131D)" stroke="var(--stroke-1, #02131D)" stroke-width="0.9"/>
<path id="Vector_2" d="M7.76859 5.81058H9.16721V7.53891C9.15194 7.71385 9.07165 7.87671 8.94219 7.99536C8.81273 8.11402 8.64351 8.17984 8.4679 8.17984C8.29229 8.17984 8.12306 8.11402 7.9936 7.99536C7.86415 7.87671 7.78386 7.71385 7.76859 7.53891V5.81058Z" fill="var(--fill-0, #02131D)" stroke="var(--stroke-1, #02131D)" stroke-width="0.9"/>
<g id="Vector_3">
<path d="M15.469 4.28423V4.43846H14.0757V4.30019C14.0463 3.66905 13.7749 3.07349 13.3178 2.63724C12.8608 2.20098 12.2533 1.95757 11.6214 1.95757C10.9896 1.95757 10.3821 2.20098 9.92504 2.63724C9.468 3.07349 9.19659 3.66905 9.16721 4.30019V4.43846H7.76859V4.30019C7.76859 3.27906 8.17423 2.29974 8.89628 1.57769C9.61833 0.855644 10.5976 0.45 11.6188 0.45C12.6399 0.45 13.6192 0.855644 14.3413 1.57769C15.0633 2.29974 15.469 3.27906 15.469 4.30019" fill="#02131D"/>
<path d="M15.469 4.28423V4.43846H14.0757V4.30019C14.0463 3.66905 13.7749 3.07349 13.3178 2.63724C12.8608 2.20098 12.2533 1.95757 11.6214 1.95757C10.9896 1.95757 10.3821 2.20098 9.92504 2.63724C9.468 3.07349 9.19659 3.66905 9.16721 4.30019V4.43846H7.76859V4.30019C7.76859 3.27906 8.17423 2.29974 8.89628 1.57769C9.61833 0.855644 10.5976 0.45 11.6188 0.45C12.6399 0.45 13.6192 0.855644 14.3413 1.57769C15.0633 2.29974 15.469 3.27906 15.469 4.30019" stroke="var(--stroke-0, #02131D)" stroke-width="0.9"/>
</g>
<path id="Vector_4" d="M14.0758 5.81058H15.4691V7.53891C15.4691 7.72367 15.3957 7.90087 15.2651 8.03151C15.1344 8.16216 14.9573 8.23556 14.7725 8.23556C14.5877 8.23556 14.4105 8.16216 14.2799 8.03151C14.1492 7.90087 14.0758 7.72367 14.0758 7.53891V5.81058Z" fill="var(--fill-0, #02131D)" stroke="var(--stroke-1, #02131D)" stroke-width="0.9"/>
<path id="Vector_5" d="M16.9369 22.0729H6.03509C5.93885 22.0814 5.84191 22.0697 5.75042 22.0386C5.65893 22.0076 5.5749 21.9579 5.50367 21.8926C5.43244 21.8273 5.37556 21.748 5.33664 21.6595C5.29773 21.5711 5.27764 21.4755 5.27764 21.3789C5.27764 21.2823 5.29773 21.1868 5.33664 21.0983C5.37556 21.0099 5.43244 20.9305 5.50367 20.8653C5.5749 20.8 5.65893 20.7503 5.75042 20.7192C5.84191 20.6882 5.93885 20.6765 6.03509 20.6849H16.9369C17.0331 20.6765 17.1301 20.6882 17.2215 20.7192C17.313 20.7503 17.3971 20.8 17.4683 20.8653C17.5395 20.9305 17.5964 21.0099 17.6353 21.0983C17.6742 21.1868 17.6943 21.2823 17.6943 21.3789C17.6943 21.4755 17.6742 21.5711 17.6353 21.6595C17.5964 21.748 17.5395 21.8273 17.4683 21.8926C17.3971 21.9579 17.313 22.0076 17.2215 22.0386C17.1301 22.0697 17.0331 22.0814 16.9369 22.0729Z" fill="var(--fill-0, #02131D)" stroke="var(--stroke-1, #02131D)" stroke-width="0.9"/>
</g>
</svg>
