<svg preserveAspectRatio="none" width="100%" height="100%" overflow="visible" style="display: block;" viewBox="0 0 18 18" fill="none" xmlns="http://www.w3.org/2000/svg">
<g id="Container">
<path id="Icon" d="M4 18V16H8V12.9C7.18333 12.7167 6.45417 12.3708 5.8125 11.8625C5.17083 11.3542 4.7 10.7167 4.4 9.95C3.15 9.8 2.10417 9.25417 1.2625 8.3125C0.420833 7.37083 0 6.26667 0 5V4C0 3.45 0.195833 2.97917 0.5875 2.5875C0.979167 2.19583 1.45 2 2 2H4V0H14V2H16C16.55 2 17.0208 2.19583 17.4125 2.5875C17.8042 2.97917 18 3.45 18 4V5C18 6.26667 17.5792 7.37083 16.7375 8.3125C15.8958 9.25417 14.85 9.8 13.6 9.95C13.3 10.7167 12.8292 11.3542 12.1875 11.8625C11.5458 12.3708 10.8167 12.7167 10 12.9V16H14V18H4V18M4 7.8V4H2V5C2 5.63333 2.18333 6.20417 2.55 6.7125C2.91667 7.22083 3.4 7.58333 4 7.8V7.8M9 11C9.83333 11 10.5417 10.7083 11.125 10.125C11.7083 9.54167 12 8.83333 12 8V2H6V8C6 8.83333 6.29167 9.54167 6.875 10.125C7.45833 10.7083 8.16667 11 9 11V11M14 7.8C14.6 7.58333 15.0833 7.22083 15.45 6.7125C15.8167 6.20417 16 5.63333 16 5V4H14V7.8V7.8M9 6.5V6.5V6.5V6.5V6.5V6.5V6.5V6.5V6.5" fill="var(--fill-0, #02131D)"/>
</g>
</svg>
