<svg preserveAspectRatio="none" width="100%" height="100%" overflow="visible" style="display: block;" viewBox="0 0 20 16" fill="none" xmlns="http://www.w3.org/2000/svg">
<g id="Container">
<path id="Icon" d="M10 8V8V8V8V8V8V8V8V8V8V8V8V8V8M18 16H13C13 15.6667 12.9875 15.3333 12.9625 15C12.9375 14.6667 12.9 14.3333 12.85 14H18V14V14V2V2V2H2V2V2V3.15C1.66667 3.1 1.33333 3.0625 1 3.0375C0.666667 3.0125 0.333333 3 0 3V2C0 1.45 0.195833 0.979167 0.5875 0.5875C0.979167 0.195833 1.45 0 2 0H18C18.55 0 19.0208 0.195833 19.4125 0.5875C19.8042 0.979167 20 1.45 20 2V14C20 14.55 19.8042 15.0208 19.4125 15.4125C19.0208 15.8042 18.55 16 18 16V16M0 16V13C0.833333 13 1.54167 13.2917 2.125 13.875C2.70833 14.4583 3 15.1667 3 16H0V16M5 16C5 14.6167 4.5125 13.4375 3.5375 12.4625C2.5625 11.4875 1.38333 11 0 11V9C1.95 9 3.60417 9.67917 4.9625 11.0375C6.32083 12.3958 7 14.05 7 16H5V16M9 16C9 14.75 8.7625 13.5792 8.2875 12.4875C7.8125 11.3958 7.17083 10.4458 6.3625 9.6375C5.55417 8.82917 4.60417 8.1875 3.5125 7.7125C2.42083 7.2375 1.25 7 0 7V5C1.51667 5 2.94167 5.2875 4.275 5.8625C5.60833 6.4375 6.775 7.225 7.775 8.225C8.775 9.225 9.5625 10.3917 10.1375 11.725C10.7125 13.0583 11 14.4833 11 16H9V16" fill="var(--fill-0, #02131D)"/>
</g>
</svg>
