<svg preserveAspectRatio="none" width="100%" height="100%" overflow="visible" style="display: block;" viewBox="0 0 139 139" fill="none" xmlns="http://www.w3.org/2000/svg">
<g id="Container" opacity="0.05">
<path id="Icon" d="M48.6667 107V98.6667H65.3333V85.75C61.9306 84.9861 58.8924 83.5451 56.2188 81.4271C53.5451 79.309 51.5833 76.6528 50.3333 73.4583C45.125 72.8333 40.7674 70.559 37.2604 66.6354C33.7535 62.7118 32 58.1111 32 52.8333V48.6667C32 46.375 32.816 44.4132 34.4479 42.7812C36.0799 41.1493 38.0417 40.3333 40.3333 40.3333H48.6667V32H90.3333V40.3333H98.6667C100.958 40.3333 102.92 41.1493 104.552 42.7812C106.184 44.4132 107 46.375 107 48.6667V52.8333C107 58.1111 105.247 62.7118 101.74 66.6354C98.2326 70.559 93.875 72.8333 88.6667 73.4583C87.4167 76.6528 85.4549 79.309 82.7812 81.4271C80.1076 83.5451 77.0694 84.9861 73.6667 85.75V98.6667H90.3333V107H48.6667V107M48.6667 64.5V48.6667H40.3333V52.8333C40.3333 55.4722 41.0972 57.8507 42.625 59.9688C44.1528 62.0868 46.1667 63.5972 48.6667 64.5V64.5M69.5 77.8333C72.9722 77.8333 75.9236 76.6181 78.3542 74.1875C80.7847 71.7569 82 68.8056 82 65.3333V40.3333H57V65.3333C57 68.8056 58.2153 71.7569 60.6458 74.1875C63.0764 76.6181 66.0278 77.8333 69.5 77.8333V77.8333M90.3333 64.5C92.8333 63.5972 94.8472 62.0868 96.375 59.9688C97.9028 57.8507 98.6667 55.4722 98.6667 52.8333V48.6667H90.3333V64.5V64.5M69.5 59.0833V59.0833V59.0833V59.0833V59.0833V59.0833V59.0833V59.0833V59.0833" fill="var(--fill-0, #02131D)"/>
</g>
</svg>
