<svg preserveAspectRatio="none" width="100%" height="100%" overflow="visible" style="display: block;" viewBox="0 0 147.333 130.667" fill="none" xmlns="http://www.w3.org/2000/svg">
<g id="Container" opacity="0.05">
<path id="Icon" d="M73.6667 65.3333V65.3333V65.3333V65.3333V65.3333V65.3333V65.3333V65.3333V65.3333V65.3333V65.3333V65.3333V65.3333V65.3333M107 98.6667H86.1667C86.1667 97.2778 86.1146 95.8889 86.0104 94.5C85.9063 93.1111 85.75 91.7222 85.5417 90.3333H107V90.3333V90.3333V40.3333V40.3333V40.3333H40.3333V40.3333V40.3333V45.125C38.9444 44.9167 37.5556 44.7604 36.1667 44.6562C34.7778 44.5521 33.3889 44.5 32 44.5V40.3333C32 38.0417 32.816 36.0799 34.4479 34.4479C36.0799 32.816 38.0417 32 40.3333 32H107C109.292 32 111.253 32.816 112.885 34.4479C114.517 36.0799 115.333 38.0417 115.333 40.3333V90.3333C115.333 92.625 114.517 94.5868 112.885 96.2188C111.253 97.8507 109.292 98.6667 107 98.6667V98.6667M32 98.6667V86.1667C35.4722 86.1667 38.4236 87.3819 40.8542 89.8125C43.2847 92.2431 44.5 95.1944 44.5 98.6667H32V98.6667M52.8333 98.6667C52.8333 92.9028 50.8021 87.9896 46.7396 83.9271C42.6771 79.8646 37.7639 77.8333 32 77.8333V69.5C40.125 69.5 47.0174 72.3299 52.6771 77.9896C58.3368 83.6493 61.1667 90.5417 61.1667 98.6667H52.8333V98.6667M69.5 98.6667C69.5 93.4583 68.5104 88.5799 66.5312 84.0312C64.5521 79.4826 61.8785 75.5243 58.5104 72.1562C55.1424 68.7882 51.184 66.1146 46.6354 64.1354C42.0868 62.1563 37.2083 61.1667 32 61.1667V52.8333C38.3194 52.8333 44.2569 54.0313 49.8125 56.4271C55.3681 58.8229 60.2292 62.1042 64.3958 66.2708C68.5625 70.4375 71.8437 75.2986 74.2396 80.8542C76.6354 86.4097 77.8333 92.3472 77.8333 98.6667H69.5V98.6667" fill="var(--fill-0, #02131D)"/>
</g>
</svg>
