<svg preserveAspectRatio="none" width="100%" height="100%" overflow="visible" style="display: block;" viewBox="0 0 88 88" fill="none" xmlns="http://www.w3.org/2000/svg">
<g id="Background">
<rect x="12" y="2" width="64" height="64" rx="16" fill="var(--fill-0, #02131D)"/>
<g id="Overlay+Shadow" filter="url(#filter0_dd_0_4)">
<rect x="12" y="2" width="64" height="64" rx="16" fill="var(--fill-0, white)" fill-opacity="0.01" shape-rendering="crispEdges"/>
</g>
<path id="Vector" d="M39.4695 46.2712C39.3852 46.5279 39.5341 46.8011 39.8003 46.8824C41.1536 47.2929 42.5663 47.5 44 47.5C48.4436 47.5 52.5249 45.5354 55.1971 42.1069C57.0314 39.7522 58 36.9513 58 34.0007C58 30.1883 56.3673 26.6329 53.4866 24.0785H55.4698C55.7492 24.0785 55.9758 23.8599 55.9758 23.5905C55.9758 23.3211 55.7492 23.1026 55.4698 23.1026H52.0963C51.8169 23.1026 51.5903 23.3211 51.5903 23.5905V26.8437C51.5903 27.1131 51.8169 27.3317 52.0963 27.3317C52.3757 27.3317 52.6023 27.1131 52.6023 26.8437V24.6186C55.3987 27 56.9879 30.3764 56.9879 34.0007C56.9879 36.7367 56.0865 39.3392 54.3866 41.5185C51.9078 44.7005 48.122 46.5254 43.9999 46.5254C42.6702 46.5254 41.359 46.3335 40.1031 45.9523C39.8369 45.871 39.5539 46.0145 39.4695 46.2712ZM32.5302 43.9228H34.5134C31.6328 41.3685 30 37.813 30 34.0006C30 31.0499 30.9686 28.249 32.8029 25.8931C35.4754 22.4646 39.5567 20.5 44 20.5C45.4338 20.5 46.8477 20.7084 48.1997 21.1176C48.4659 21.1989 48.6148 21.4721 48.5305 21.7288C48.4461 21.9855 48.1628 22.1291 47.8966 22.0478C46.6421 21.6665 45.3296 21.4747 43.9999 21.4747C39.8777 21.4747 36.092 23.2995 33.6131 26.4816C31.9131 28.6648 31.0118 31.2634 31.0118 33.9994C31.0118 37.6237 32.601 41.0037 35.3974 43.3815V41.1577C35.3974 40.8883 35.6241 40.6697 35.9034 40.6697C36.1828 40.6697 36.4095 40.8883 36.4095 41.1577V44.4108C36.4095 44.6802 36.1828 44.8988 35.9034 44.8988H32.5299C32.2505 44.8988 32.0239 44.6802 32.0239 44.4108C32.0239 44.1414 32.2508 43.9228 32.5302 43.9228ZM37.0541 38.4344C36.805 38.8181 36.8656 39.3099 37.1964 39.6289L38.1676 40.5655C38.4984 40.8844 39.007 40.939 39.4063 40.7027L40.4421 40.0775C40.6345 39.9631 40.8677 39.9479 41.0628 40.0355C41.2578 40.1232 41.4581 40.2045 41.6637 40.2757C41.8692 40.3469 42.0208 40.5133 42.0722 40.7281L42.3489 41.873C42.453 42.3127 42.8549 42.6215 43.324 42.6215H44.6998C45.1689 42.6215 45.5695 42.3127 45.675 41.873L45.9517 40.7281C46.0018 40.5171 46.1546 40.3469 46.3562 40.2757C46.5618 40.2045 46.7647 40.1232 46.9571 40.0355C47.1522 39.944 47.3854 39.9606 47.5778 40.0775L48.6096 40.7027C49.0076 40.9429 49.5176 40.8844 49.8484 40.5655L50.8196 39.6314C51.1503 39.3125 51.207 38.822 50.9619 38.4369L50.3175 37.4381C50.1989 37.2526 50.1831 37.0314 50.274 36.8396C50.3689 36.6515 50.4492 36.4558 50.523 36.2601C50.5968 36.0644 50.7695 35.9157 50.9922 35.8662L52.1795 35.6031C52.6354 35.5028 52.9557 35.1152 52.9557 34.6628V33.3361C52.9557 32.8837 52.6354 32.4974 52.1795 32.3958L50.9922 32.1327C50.7734 32.0844 50.5968 31.937 50.523 31.7426C50.4492 31.5469 50.3649 31.3525 50.274 31.1631C50.1791 30.9751 50.1962 30.7501 50.3175 30.5646L50.9658 29.5696C51.2149 29.1858 51.1582 28.694 50.8235 28.3751L49.8549 27.4411C49.5242 27.1221 49.0155 27.0675 48.6162 27.3038L47.5844 27.929C47.392 28.0459 47.1587 28.0587 46.9637 27.971C46.7687 27.8833 46.5657 27.802 46.3628 27.7308C46.1599 27.6596 46.0083 27.4932 45.9583 27.2784L45.6815 26.1297C45.5774 25.69 45.1755 25.3812 44.7064 25.3812H43.3306C42.8615 25.3812 42.4609 25.69 42.3555 26.1297L42.0787 27.2746C42.0287 27.4856 41.8758 27.6558 41.6702 27.727C41.4673 27.7982 41.2657 27.8769 41.0693 27.9672C40.8743 28.0549 40.6411 28.0421 40.4487 27.9252L39.4129 27.3C39.0149 27.0624 38.505 27.1183 38.1742 27.4373L37.203 28.3738C36.8722 28.6928 36.8116 29.1833 37.0607 29.5683L37.709 30.5633C37.8303 30.7489 37.8434 30.9738 37.7525 31.1619C37.6576 31.3499 37.5772 31.5456 37.5034 31.7413C37.4297 31.937 37.2544 32.0832 37.0343 32.1352L35.847 32.3983C35.391 32.4987 35.0708 32.8863 35.0708 33.3387V34.6653C35.0708 35.1177 35.3911 35.504 35.847 35.6057L37.0343 35.8687C37.2531 35.917 37.4297 36.0644 37.5034 36.2627C37.5746 36.4584 37.6589 36.6528 37.7525 36.8421C37.8474 37.0302 37.8303 37.2551 37.709 37.4406L37.0541 38.4344ZM40.6266 34.0006C40.6266 32.205 42.1382 30.7475 44.0002 30.7475C45.8622 30.7475 47.3737 32.205 47.3737 34.0006C47.3737 35.7962 45.8622 37.2538 44.0002 37.2538C42.1382 37.2538 40.6266 35.7962 40.6266 34.0006Z" fill="var(--fill-0, #00D6FE)"/>
</g>
<defs>
<filter id="filter0_dd_0_4" x="0" y="0" width="88" height="88" filterUnits="userSpaceOnUse" color-interpolation-filters="sRGB">
<feFlood flood-opacity="0" result="BackgroundImageFix"/>
<feColorMatrix in="SourceAlpha" type="matrix" values="0 0 0 0 0 0 0 0 0 0 0 0 0 0 0 0 0 0 127 0" result="hardAlpha"/>
<feMorphology radius="4" operator="erode" in="SourceAlpha" result="effect1_dropShadow_0_4"/>
<feOffset dy="4"/>
<feGaussianBlur stdDeviation="3"/>
<feComposite in2="hardAlpha" operator="out"/>
<feColorMatrix type="matrix" values="0 0 0 0 0 0 0 0 0 0 0 0 0 0 0 0 0 0 0.1 0"/>
<feBlend mode="normal" in2="BackgroundImageFix" result="effect1_dropShadow_0_4"/>
<feColorMatrix in="SourceAlpha" type="matrix" values="0 0 0 0 0 0 0 0 0 0 0 0 0 0 0 0 0 0 127 0" result="hardAlpha"/>
<feMorphology radius="3" operator="erode" in="SourceAlpha" result="effect2_dropShadow_0_4"/>
<feOffset dy="10"/>
<feGaussianBlur stdDeviation="7.5"/>
<feComposite in2="hardAlpha" operator="out"/>
<feColorMatrix type="matrix" values="0 0 0 0 0 0 0 0 0 0 0 0 0 0 0 0 0 0 0.1 0"/>
<feBlend mode="normal" in2="effect1_dropShadow_0_4" result="effect2_dropShadow_0_4"/>
<feBlend mode="normal" in="SourceGraphic" in2="effect2_dropShadow_0_4" result="shape"/>
</filter>
</defs>
</svg>
