<svg preserveAspectRatio="none" width="100%" height="100%" overflow="visible" style="display: block;" viewBox="0 0 25.8 19" fill="none" xmlns="http://www.w3.org/2000/svg">
<g id="Icon container">
<path id="Vector" d="M23.5254 0.5C24.5239 0.500203 25.2998 1.2769 25.2998 2.27539V16.7246C25.2998 17.7231 24.5238 18.4998 23.5254 18.5H2.27539C1.27673 18.5 0.5 17.7232 0.5 16.7246V2.27539C0.5 1.27673 1.27677 0.5 2.27539 0.5H23.5254ZM2.34961 16.6494H23.4502V2.34961H2.34961V16.6494Z" fill="var(--fill-0, #00D6FE)" stroke="var(--stroke-0, #00D6FE)"/>
<path id="Vector_2" d="M10.0122 9.61375L14.2622 7.06375C14.3897 6.97875 14.5597 6.97875 14.6872 7.06375C14.8147 7.14875 14.8997 7.27625 14.8997 7.44624V12.5462C14.8997 12.7162 14.8147 12.8437 14.6872 12.9287C14.6022 12.9712 14.5597 12.9712 14.4747 12.9712C14.3897 12.9712 14.3047 12.9712 14.2622 12.9287L10.0122 10.3787C9.88471 10.2937 9.79971 10.1662 9.79971 9.99624C9.79971 9.82625 9.88471 9.69872 10.0122 9.61375Z" fill="var(--fill-0, #00D6FE)"/>
</g>
</svg>
