<svg preserveAspectRatio="none" width="100%" height="100%" overflow="visible" style="display: block;" viewBox="0 0 25 25" fill="none" xmlns="http://www.w3.org/2000/svg">
<g id="Container">
<path id="Vector" d="M24.4635 23.927H23.6052V3.00429C23.6052 2.70815 23.3648 2.46781 23.0687 2.46781H18.7768C18.4807 2.46781 18.2403 2.70815 18.2403 3.00429V23.927H16.0944V9.44206C16.0944 9.14592 15.8541 8.90558 15.5579 8.90558H11.2661C10.97 8.90558 10.7296 9.14592 10.7296 9.44206V23.927H8.58369V15.8798C8.58369 15.5837 8.34335 15.3433 8.04721 15.3433H3.75536C3.45923 15.3433 3.21888 15.5837 3.21888 15.8798V23.927H1.07296V0.536481C1.07296 0.240343 0.832618 0 0.536481 0C0.240343 0 0 0.240343 0 0.536481V24.4635C0 24.7597 0.240343 25 0.536481 25H24.4635C24.7597 25 25 24.7597 25 24.4635C25 24.1674 24.7597 23.927 24.4635 23.927ZM7.51073 23.927H4.29185V16.4163H7.51073V23.927ZM15.0215 23.927H11.8026V9.97854H15.0215V23.927ZM22.5322 23.927H19.3133V3.54077H22.5322V23.927Z" fill="var(--fill-0, #00D6FE)"/>
</g>
</svg>
