<svg preserveAspectRatio="none" width="100%" height="100%" overflow="visible" style="display: block;" viewBox="0 0 25.625 25.625" fill="none" xmlns="http://www.w3.org/2000/svg">
<g id="Container">
<path id="Icon" d="M12.125 20C10.125 19.8958 8.4375 19.125 7.0625 17.6875C5.6875 16.25 5 14.5208 5 12.5C5 10.4167 5.72917 8.64583 7.1875 7.1875C8.64583 5.72917 10.4167 5 12.5 5C14.5208 5 16.25 5.6875 17.6875 7.0625C19.125 8.4375 19.8958 10.125 20 12.125L17.375 11.3438C17.1042 10.2188 16.5208 9.29688 15.625 8.57812C14.7292 7.85938 13.6875 7.5 12.5 7.5C11.125 7.5 9.94792 7.98958 8.96875 8.96875C7.98958 9.94792 7.5 11.125 7.5 12.5C7.5 13.6875 7.85938 14.7292 8.57812 15.625C9.29688 16.5208 10.2188 17.1042 11.3438 17.375L12.125 20V20M13.625 24.9375C13.4375 24.9792 13.25 25 13.0625 25C12.875 25 12.6875 25 12.5 25C10.7708 25 9.14583 24.6719 7.625 24.0156C6.10417 23.3594 4.78125 22.4688 3.65625 21.3438C2.53125 20.2188 1.64062 18.8958 0.984375 17.375C0.328125 15.8542 0 14.2292 0 12.5C0 10.7708 0.328125 9.14583 0.984375 7.625C1.64062 6.10417 2.53125 4.78125 3.65625 3.65625C4.78125 2.53125 6.10417 1.64062 7.625 0.984375C9.14583 0.328125 10.7708 0 12.5 0C14.2292 0 15.8542 0.328125 17.375 0.984375C18.8958 1.64062 20.2188 2.53125 21.3438 3.65625C22.4688 4.78125 23.3594 6.10417 24.0156 7.625C24.6719 9.14583 25 10.7708 25 12.5C25 12.6875 25 12.875 25 13.0625C25 13.25 24.9792 13.4375 24.9375 13.625L22.5 12.875V12.5C22.5 9.70833 21.5312 7.34375 19.5938 5.40625C17.6562 3.46875 15.2917 2.5 12.5 2.5C9.70833 2.5 7.34375 3.46875 5.40625 5.40625C3.46875 7.34375 2.5 9.70833 2.5 12.5C2.5 15.2917 3.46875 17.6562 5.40625 19.5938C7.34375 21.5312 9.70833 22.5 12.5 22.5C12.5625 22.5 12.625 22.5 12.6875 22.5C12.75 22.5 12.8125 22.5 12.875 22.5L13.625 24.9375V24.9375M23.1562 25.625L17.8125 20.2812L16.25 25L12.5 12.5L25 16.25L20.2812 17.8125L25.625 23.1562L23.1562 25.625V25.625" fill="var(--fill-0, #00D6FE)"/>
</g>
</svg>
