<svg preserveAspectRatio="none" width="100%" height="100%" overflow="visible" style="display: block;" viewBox="0 0 54.5178 56" fill="none" xmlns="http://www.w3.org/2000/svg">
<g id="Icon container">
<path id="Vector" d="M52.9162 24.8036L49.2603 18.4993L49.2565 18.4931L49.2334 18.4582L49.2209 18.4396C49.2134 18.4296 49.2046 18.4196 49.1965 18.4097C49.1912 18.4028 49.1856 18.3961 49.1796 18.3898C49.1727 18.3817 49.1646 18.3742 49.1571 18.3668C49.1437 18.3527 49.1293 18.3396 49.114 18.3276C49.104 18.3195 49.094 18.3108 49.084 18.3033L49.0652 18.2908L49.0302 18.2678L49.0239 18.2641L44.302 15.5556L47.5721 10.635C47.6364 10.5384 47.6731 10.4262 47.6785 10.3105C47.6838 10.1947 47.6576 10.0796 47.6025 9.97753C47.5474 9.87543 47.4655 9.79008 47.3656 9.73056C47.2657 9.67103 47.1514 9.63955 47.035 9.63947H44.4764V0.641511C44.4765 0.557296 44.4599 0.473891 44.4276 0.396062C44.3953 0.318234 44.3478 0.24751 44.288 0.187932C44.2282 0.128354 44.1572 0.0810909 44.079 0.0488443C44.0008 0.0165977 43.917 -3.96903e-08 43.8324 0H37.4266C37.342 -3.96903e-08 37.2582 0.0165977 37.18 0.0488443C37.1018 0.0810909 37.0308 0.128354 36.971 0.187932C36.9112 0.24751 36.8638 0.318234 36.8314 0.396062C36.7991 0.473891 36.7825 0.557296 36.7826 0.641511V9.63698H34.224C34.1648 9.63715 34.106 9.64531 34.049 9.66125L31.3485 8.11004V5.08853C31.3483 4.9185 31.2803 4.75549 31.1594 4.63532C31.0386 4.51515 30.8747 4.44764 30.7038 4.44764H24.2987C24.1278 4.44764 23.9639 4.51515 23.8431 4.63532C23.7222 4.75549 23.6542 4.9185 23.654 5.08853V8.11004L20.9535 9.66125C20.8965 9.64531 20.8377 9.63715 20.7785 9.63698H18.2199V0.641511C18.22 0.557296 18.2034 0.473891 18.1711 0.396062C18.1387 0.318234 18.0913 0.24751 18.0315 0.187932C17.9717 0.128354 17.9007 0.0810909 17.8225 0.0488443C17.7443 0.0165977 17.6605 -3.96903e-08 17.5759 0H11.1701C11.0855 -3.96903e-08 11.0017 0.0165977 10.9235 0.0488443C10.8453 0.0810909 10.7743 0.128354 10.7145 0.187932C10.6547 0.24751 10.6072 0.318234 10.5749 0.396062C10.5426 0.473891 10.526 0.557296 10.5261 0.641511V9.63698H7.96752C7.85106 9.63706 7.73681 9.66854 7.63689 9.72807C7.53697 9.78759 7.45512 9.87294 7.40003 9.97504C7.34495 10.0771 7.31868 10.1922 7.32403 10.308C7.32938 10.4237 7.36615 10.5359 7.43042 10.6325L10.7005 15.5556L5.98044 18.2678L5.97481 18.2709L5.93792 18.2946L5.92104 18.3064C5.90979 18.3145 5.89978 18.3226 5.88915 18.3313L5.8704 18.3468L5.84601 18.3705C5.83913 18.378 5.83163 18.3848 5.82475 18.3929C5.81787 18.401 5.81287 18.4066 5.80724 18.4134C5.80162 18.4203 5.79099 18.4327 5.78348 18.4427L5.77035 18.462L5.74784 18.4962L5.74409 18.5024L2.08632 24.8036C2.00089 24.9509 1.97773 25.126 2.02194 25.2903C2.06614 25.4545 2.17409 25.5946 2.32205 25.6797L5.65781 27.5962V43.1822C5.65787 43.2948 5.68772 43.4053 5.74436 43.5028C5.801 43.6002 5.88242 43.6811 5.98044 43.7372L27.1767 55.9172H27.1817C27.2046 55.9302 27.2282 55.9419 27.2524 55.9521H27.2574C27.2793 55.9613 27.3019 55.969 27.3249 55.9751L27.3443 55.9801C27.3631 55.9847 27.3825 55.9884 27.4025 55.9913L27.4218 55.9944C27.4482 55.9979 27.4747 55.9998 27.5012 56C27.5268 55.9999 27.5522 55.9982 27.5775 55.995L27.5975 55.9919C27.6175 55.989 27.6369 55.9853 27.6557 55.9807L27.6751 55.9757C27.6981 55.9697 27.7207 55.962 27.7426 55.9527H27.7476C27.7718 55.9424 27.7953 55.9307 27.8183 55.9179H27.8233L49.0196 43.7379C49.1176 43.6817 49.199 43.6008 49.2556 43.5034C49.3123 43.406 49.3421 43.2954 49.3422 43.1828V27.5962L52.678 25.6797C52.8259 25.5946 52.9339 25.4545 52.9781 25.2903C53.0223 25.126 52.9991 24.9509 52.9137 24.8036H52.9162ZM37.4266 10.9194C37.5975 10.9194 37.7614 10.8519 37.8822 10.7317C38.0031 10.6115 38.0711 10.4485 38.0713 10.2785V1.2824H43.1878V10.2785C43.1878 10.3627 43.2044 10.4461 43.2368 10.5239C43.2692 10.6017 43.3167 10.6724 43.3766 10.7319C43.4365 10.7914 43.5076 10.8386 43.5858 10.8708C43.664 10.9029 43.7478 10.9195 43.8324 10.9194H45.8332L40.6317 18.7532L35.4252 10.9194H37.4266ZM24.9427 5.73004H30.0598V14.7255C30.0597 14.8097 30.0763 14.8931 30.1087 14.971C30.141 15.0488 30.1884 15.1195 30.2482 15.1791C30.308 15.2387 30.3791 15.2859 30.4572 15.3182C30.5354 15.3504 30.6192 15.367 30.7038 15.367H32.7047L27.5012 23.2008L22.2947 15.3689H24.2955C24.3802 15.3689 24.464 15.3523 24.5421 15.32C24.6203 15.2878 24.6913 15.2405 24.7512 15.181C24.811 15.1214 24.8584 15.0507 24.8907 14.9728C24.923 14.895 24.9396 14.8116 24.9396 14.7274L24.9427 5.73004ZM11.1701 10.9194C11.2547 10.9195 11.3385 10.9029 11.4167 10.8708C11.495 10.8386 11.566 10.7914 11.6259 10.7319C11.6858 10.6724 11.7333 10.6017 11.7657 10.5239C11.7981 10.4461 11.8147 10.3627 11.8147 10.2785V1.2824H16.9344V10.2785C16.9345 10.4485 17.0025 10.6115 17.1234 10.7317C17.2443 10.8519 17.4081 10.9194 17.579 10.9194H19.583L14.3708 18.7532L9.16364 10.9194H11.1701ZM13.8356 20.2695C13.8944 20.3578 13.9742 20.4303 14.068 20.4804C14.1618 20.5305 14.2665 20.5567 14.373 20.5567C14.4794 20.5567 14.5842 20.5305 14.678 20.4804C14.7718 20.4303 14.8516 20.3578 14.9104 20.2695L20.991 11.1228L23.654 9.5928V14.0865H21.0961C20.9795 14.0863 20.865 14.1175 20.7649 14.177C20.6648 14.2364 20.5827 14.3218 20.5275 14.424C20.4723 14.5262 20.446 14.6413 20.4515 14.7572C20.4569 14.8731 20.4938 14.9854 20.5584 15.082L26.9635 24.7165C27.0223 24.8048 27.1022 24.8773 27.1959 24.9274C27.2897 24.9775 27.3945 25.0038 27.5009 25.0038C27.6074 25.0038 27.7122 24.9775 27.8059 24.9274C27.8997 24.8773 27.9796 24.8048 28.0383 24.7165L34.4416 15.0796C34.5062 14.9829 34.5431 14.8707 34.5485 14.7548C34.554 14.6389 34.5277 14.5237 34.4725 14.4215C34.4173 14.3193 34.3352 14.2339 34.2351 14.1745C34.135 14.115 34.0205 14.0838 33.9039 14.084H31.3485V9.59093L34.0115 11.121L40.0921 20.2676C40.1509 20.356 40.2307 20.4284 40.3245 20.4785C40.4183 20.5286 40.5231 20.5549 40.6295 20.5549C40.736 20.5549 40.8407 20.5286 40.9345 20.4785C41.0283 20.4284 41.1081 20.356 41.1669 20.2676L43.5898 16.622L47.4114 18.8179L27.5012 30.2587L7.59111 18.8197L11.4127 16.6239L13.8356 20.2695ZM6.53817 19.6958L26.6209 31.2356L23.6078 36.4292L3.52442 24.8889L6.53817 19.6958ZM6.94647 28.3366L23.5215 37.8597C23.6194 37.916 23.7304 37.9456 23.8435 37.9456C23.8996 37.9455 23.9555 37.9382 24.0098 37.9238C24.0916 37.902 24.1683 37.8643 24.2355 37.813C24.3026 37.7616 24.359 37.6976 24.4012 37.6245L26.8566 33.3934V54.2484L6.94647 42.8089V28.3366ZM48.056 42.8089L28.1453 54.2484V33.3922L30.6013 37.6233C30.6435 37.6963 30.6997 37.7603 30.7668 37.8116C30.8338 37.863 30.9104 37.9007 30.9921 37.9225C31.0738 37.9443 31.1591 37.9499 31.243 37.939C31.3269 37.928 31.4078 37.9006 31.481 37.8585L48.056 28.3366V42.8089ZM31.3947 36.428L28.3816 31.2356L48.4643 19.6958L51.4781 24.8889L31.3947 36.428Z" fill="var(--fill-0, #02131D)"/>
</g>
</svg>
