<svg preserveAspectRatio="none" width="100%" height="100%" overflow="visible" style="display: block;" viewBox="0 0 23.9487 23.9475" fill="none" xmlns="http://www.w3.org/2000/svg">
<g id="Icon container">
<path id="Vector" d="M23.9344 9.39569L23.4518 3.10366C23.4024 2.42888 23.1118 1.79413 22.6331 1.3159C22.1547 0.837449 21.52 0.547157 20.8449 0.497779L14.5539 0.0152127C13.1731 -0.096008 11.8136 0.406702 10.8372 1.38947L1.38915 10.8402C0.496562 11.7272 -0.00364155 12.9347 2.06666e-05 14.193C-0.00370593 15.4513 0.496691 16.6588 1.38928 17.5457L6.40379 22.5603C7.29349 23.4485 8.49931 23.9475 9.75666 23.9475C11.014 23.9475 12.2198 23.4485 13.1095 22.5603L22.5601 13.1096C23.5397 12.1326 24.0419 10.7751 23.9344 9.39569ZM21.2542 11.8063L11.8035 21.257C11.2593 21.7998 10.5217 22.1047 9.753 22.1047C8.98429 22.1047 8.24693 21.7998 7.70271 21.257L2.69187 16.2433C2.14804 15.6995 1.84252 14.9619 1.84252 14.193C1.84252 13.4238 2.14797 12.6863 2.69187 12.1425L12.1425 2.6919C12.6838 2.1489 13.4187 1.84335 14.1854 1.84251C14.26 1.84251 14.3355 1.84251 14.4112 1.85177L20.7006 2.33453C20.9364 2.35159 21.1582 2.45275 21.3253 2.61994C21.4927 2.78709 21.5943 3.00873 21.6115 3.24453L22.0943 9.53502L22.0941 9.5348C22.1604 10.3786 21.8534 11.2089 21.2542 11.8063Z" fill="var(--fill-0, #00D6FE)"/>
<path id="Vector_2" d="M16.1303 5.01365C15.3838 5.01365 14.666 5.30086 14.1255 5.81549C13.594 6.34721 13.2954 7.06828 13.2954 7.81997C13.2954 8.57185 13.5942 9.29269 14.1257 9.82441C14.6572 10.3561 15.378 10.6548 16.1297 10.6551L16.1298 10.6542C16.8814 10.654 17.6022 10.3553 18.1336 9.8238C18.6651 9.29227 18.9639 8.57165 18.964 7.81997C18.9645 7.06828 18.6661 6.34737 18.135 5.81549C17.5945 5.30086 16.8767 5.01365 16.1303 5.01365ZM16.8309 8.5217C16.6422 8.70241 16.3911 8.80338 16.1298 8.80338C15.8687 8.80338 15.6175 8.70241 15.429 8.5217C15.2431 8.33562 15.1388 8.08334 15.1388 7.82038C15.1388 7.5574 15.2431 7.30511 15.429 7.11885L15.4279 7.11901L15.4281 7.11881C15.6137 6.9321 15.8664 6.82724 16.1298 6.82788C16.3925 6.82868 16.6444 6.93354 16.8303 7.11942C17.0162 7.30531 17.121 7.55717 17.1219 7.81993C17.1225 8.08334 17.0177 8.33604 16.8309 8.5217Z" fill="var(--fill-0, #00D6FE)"/>
</g>
</svg>
