<svg preserveAspectRatio="none" width="100%" height="100%" overflow="visible" style="display: block;" viewBox="0 0 49.1141 42.2081" fill="none" xmlns="http://www.w3.org/2000/svg">
<g id="Icon container">
<path id="Vector" d="M44.038 20.5556L32.6167 26.6297C32.6333 26.503 32.6458 26.3721 32.6458 26.2433C32.6728 24.4631 31.2311 22.9923 29.4259 22.9632L11.2949 22.9591C11.1765 22.9591 11.0643 23.0089 10.9833 23.0941L0.314484 34.5399C0.154531 34.7123 0.162838 34.9803 0.335258 35.1403C0.416271 35.2171 0.522215 35.2545 0.626085 35.2545C0.740335 35.2545 0.854591 35.2088 0.937684 35.1195L11.48 23.8066L29.4195 23.8108C30.749 23.8316 31.8146 24.9159 31.796 26.2267C31.7877 26.8374 31.5446 27.4129 31.1125 27.8512C30.7926 28.1732 30.3937 28.3996 29.9575 28.5035C29.9243 28.5118 29.889 28.518 29.8536 28.5263C29.6916 28.5575 29.5213 28.572 29.3489 28.572L17.0118 28.383C16.7729 28.3768 16.5838 28.5679 16.5797 28.8026C16.5755 29.0374 16.7646 29.2306 16.9993 29.2347L29.3364 29.4237C29.569 29.4258 29.7976 29.405 30.0156 29.3635C30.0593 29.3552 30.1008 29.3448 30.1507 29.3344C30.7448 29.1932 31.2849 28.8878 31.717 28.4537C31.9102 28.2584 32.0743 28.0424 32.2093 27.8118L44.4469 21.3037C45.6061 20.6493 47.0851 21.0503 47.7457 22.1969C48.0635 22.7475 48.1445 23.3852 47.9784 23.9959C47.8101 24.6129 47.4071 25.128 46.8441 25.4438C46.8213 25.4563 46.8005 25.4708 46.7797 25.4874C46.6925 25.5601 38.0466 32.7331 33.352 34.0147C30.1924 34.8768 15.3268 35.2009 15.1774 35.2051C15.0922 35.2071 15.0112 35.2341 14.9426 35.2819L6.44617 41.2354C6.25298 41.3704 6.20728 41.6363 6.34231 41.8274C6.4254 41.9458 6.55627 42.0081 6.6913 42.0081C6.77647 42.0081 6.86164 41.9832 6.93434 41.9313L15.3245 36.0523C16.899 36.017 30.4391 35.6908 33.5756 34.835C38.3576 33.5304 46.6439 26.7044 47.2964 26.1641C48.0401 25.7341 48.5739 25.0444 48.7983 24.2197C49.0268 23.3888 48.9146 22.5184 48.4826 21.7705C47.5893 20.2208 45.5909 19.6787 44.0371 20.5553L44.038 20.5556Z" fill="var(--fill-0, black)" stroke="var(--stroke-0, #02131D)" stroke-width="0.4"/>
<path id="Vector_2" d="M31.1669 19.3611C31.2458 19.4504 31.3601 19.5024 31.4785 19.5024H31.4847C31.6031 19.5024 31.7153 19.4546 31.7963 19.3673L43.1549 7.23179C43.2878 7.08846 43.3086 6.8745 43.2006 6.71039L43.0552 6.48603C43.0323 6.3884 42.9763 6.30323 42.8994 6.24507L39.1021 0.393209C39.0231 0.272726 38.8881 0.200019 38.7448 0.200019H38.7385L24.4445 0.397362C24.3094 0.39944 24.1848 0.463836 24.1059 0.571854L19.9574 6.28651C19.839 6.44854 19.8515 6.67081 19.9844 6.82038L31.1669 19.3611ZM31.3725 17.3544L27.382 6.98871C28.6056 6.99286 29.9807 6.99494 31.5034 6.99909C32.8973 7.00117 34.2953 7.00325 35.6061 7.00532L31.3725 17.3544ZM36.5264 7.00519C39.1459 7.00727 41.3042 7.00935 42.1974 7.00935L32.1183 17.7782L36.5264 7.00519ZM27.7518 6.13895L31.3455 1.53351L35.1782 6.15347C32.702 6.14931 30.0847 6.14518 27.7518 6.13895ZM32.1287 1.14302L38.0407 1.062L36.0651 5.88761L32.1287 1.14302ZM26.9292 5.81073L25.1697 1.2406L30.552 1.16581L26.9292 5.81073ZM30.4191 17.2443L21.2457 6.95728H21.3204C21.9 6.96351 22.7496 6.96974 23.8465 6.97597C24.6005 6.98013 25.4771 6.98428 26.4701 6.98636L30.4191 17.2443ZM41.8255 6.15746C40.4587 6.15746 38.7407 6.15538 36.8753 6.1533L38.7885 1.47724L41.8255 6.15746ZM24.4008 1.61435L26.1395 6.13252C23.9167 6.12421 22.0991 6.1159 21.1415 6.10344L24.4008 1.61435Z" fill="var(--fill-0, black)" stroke="var(--stroke-0, #02131D)" stroke-width="0.4"/>
</g>
</svg>
