<svg preserveAspectRatio="none" width="100%" height="100%" overflow="visible" style="display: block;" viewBox="0 0 22.5 22.5" fill="none" xmlns="http://www.w3.org/2000/svg">
<g id="Container">
<path id="Icon" d="M11.25 22.5C8.10417 22.5 5.44271 22.0156 3.26562 21.0469C1.08854 20.0781 0 18.8958 0 17.5V5C0 3.625 1.09896 2.44792 3.29688 1.46875C5.49479 0.489583 8.14583 0 11.25 0C14.3542 0 17.0052 0.489583 19.2031 1.46875C21.401 2.44792 22.5 3.625 22.5 5V17.5C22.5 18.8958 21.4115 20.0781 19.2344 21.0469C17.0573 22.0156 14.3958 22.5 11.25 22.5V22.5M11.25 7.53125C13.1042 7.53125 14.9688 7.26562 16.8438 6.73438C18.7188 6.20312 19.7708 5.63542 20 5.03125C19.7708 4.42708 18.724 3.85417 16.8594 3.3125C14.9948 2.77083 13.125 2.5 11.25 2.5C9.35417 2.5 7.49479 2.76562 5.67188 3.29688C3.84896 3.82812 2.79167 4.40625 2.5 5.03125C2.79167 5.65625 3.84896 6.22917 5.67188 6.75C7.49479 7.27083 9.35417 7.53125 11.25 7.53125V7.53125M11.25 13.75C12.125 13.75 12.9688 13.7083 13.7812 13.625C14.5938 13.5417 15.3698 13.4219 16.1094 13.2656C16.849 13.1094 17.5469 12.9167 18.2031 12.6875C18.8594 12.4583 19.4583 12.1979 20 11.9062V8.15625C19.4583 8.44792 18.8594 8.70833 18.2031 8.9375C17.5469 9.16667 16.849 9.35938 16.1094 9.51562C15.3698 9.67188 14.5938 9.79167 13.7812 9.875C12.9688 9.95833 12.125 10 11.25 10C10.375 10 9.52083 9.95833 8.6875 9.875C7.85417 9.79167 7.06771 9.67188 6.32812 9.51562C5.58854 9.35938 4.89583 9.16667 4.25 8.9375C3.60417 8.70833 3.02083 8.44792 2.5 8.15625V11.9062C3.02083 12.1979 3.60417 12.4583 4.25 12.6875C4.89583 12.9167 5.58854 13.1094 6.32812 13.2656C7.06771 13.4219 7.85417 13.5417 8.6875 13.625C9.52083 13.7083 10.375 13.75 11.25 13.75V13.75M11.25 20C12.2083 20 13.1823 19.9271 14.1719 19.7812C15.1615 19.6354 16.0729 19.4427 16.9062 19.2031C17.7396 18.9635 18.4375 18.6927 19 18.3906C19.5625 18.0885 19.8958 17.7812 20 17.4688V14.4062C19.4583 14.6979 18.8594 14.9583 18.2031 15.1875C17.5469 15.4167 16.849 15.6094 16.1094 15.7656C15.3698 15.9219 14.5938 16.0417 13.7812 16.125C12.9688 16.2083 12.125 16.25 11.25 16.25C10.375 16.25 9.52083 16.2083 8.6875 16.125C7.85417 16.0417 7.06771 15.9219 6.32812 15.7656C5.58854 15.6094 4.89583 15.4167 4.25 15.1875C3.60417 14.9583 3.02083 14.6979 2.5 14.4062V17.5C2.60417 17.8125 2.93229 18.1146 3.48438 18.4062C4.03646 18.6979 4.72917 18.9635 5.5625 19.2031C6.39583 19.4427 7.3125 19.6354 8.3125 19.7812C9.3125 19.9271 10.2917 20 11.25 20V20" fill="var(--fill-0, #00D6FE)"/>
</g>
</svg>
